<svg width="33" height="35" viewBox="0 0 33 35" fill="none" xmlns="http://www.w3.org/2000/svg">
<path d="M32.7927 9.47167L23.8759 0.206309C23.749 0.0745117 23.5739 0 23.3909 0H10.1012C8.6139 0 7.40387 1.20955 7.40387 2.69623V12.1154H2.01804C0.905283 12.1154 0 13.0204 0 14.1329V24.2326C0 25.345 0.905283 26.25 2.01804 26.25H7.40387V32.3085C7.40387 33.7926 8.6139 35 10.1012 35H30.2835C31.7708 35 32.9808 33.7933 32.9808 32.31V9.93843C32.9808 9.76438 32.9133 9.59711 32.7927 9.47167ZM23.5577 1.81706L30.8776 9.42307H23.5577V1.81706ZM2.01804 24.9039C1.64753 24.9039 1.3462 24.6027 1.3462 24.2326V14.1329C1.3462 13.7627 1.6476 13.4615 2.01804 13.4615H20.1936C20.5641 13.4615 20.8654 13.7627 20.8654 14.1329V24.2326C20.8654 24.6027 20.564 24.9039 20.1936 24.9039H2.01804ZM31.6346 32.31C31.6346 33.051 31.0285 33.6539 30.2834 33.6539H10.1012C9.35614 33.6539 8.75 33.0504 8.75 32.3086V26.25H20.1936C21.3063 26.25 22.2116 25.345 22.2116 24.2326V14.1329C22.2116 13.0204 21.3063 12.1154 20.1936 12.1154H8.75V2.69623C8.75 1.95173 9.35614 1.34613 10.1012 1.34613H22.2115V10.0961C22.2115 10.4679 22.5129 10.7692 22.8846 10.7692H31.6346V32.31Z" fill="#0B1F33"/>
<path d="M8.04672 17.0826C7.82325 16.7921 7.54585 16.6034 7.21458 16.5167C6.99897 16.4588 6.53625 16.4299 5.82634 16.4299H3.95302V22.2115H5.12039V20.0306H5.88157C6.41006 20.0306 6.81365 20.003 7.09235 19.9477C7.29743 19.903 7.49923 19.8117 7.69774 19.6736C7.89626 19.5356 8.05991 19.3456 8.18877 19.1038C8.31763 18.8619 8.38202 18.5635 8.38202 18.2085C8.38195 17.7484 8.27018 17.3731 8.04672 17.0826ZM7.04696 18.6739C6.95891 18.8028 6.8373 18.8974 6.68213 18.9579C6.52695 19.0184 6.2194 19.0486 5.75928 19.0486H5.12039V17.408H5.68435C6.10504 17.408 6.38504 17.4211 6.52435 17.4474C6.71364 17.4816 6.87012 17.5671 6.99364 17.7038C7.11723 17.8405 7.17903 18.0141 7.17903 18.2243C7.1791 18.3952 7.13501 18.5451 7.04696 18.6739Z" fill="#0B1F33"/>
<path d="M13.994 18.0094C13.8678 17.64 13.6837 17.3278 13.4418 17.0728C13.2 16.8177 12.9094 16.6402 12.5703 16.5403C12.3179 16.4667 11.9511 16.4299 11.47 16.4299H9.33632V22.2115H11.533C11.9643 22.2115 12.3087 22.1708 12.5663 22.0892C12.9108 21.9788 13.1842 21.825 13.3866 21.6278C13.6548 21.3675 13.8612 21.0271 14.0058 20.6064C14.1241 20.2619 14.1833 19.8518 14.1833 19.3759C14.1833 18.8343 14.1202 18.3788 13.994 18.0094ZM12.8581 20.3836C12.7792 20.6426 12.6774 20.8286 12.5525 20.9416C12.4276 21.0547 12.2705 21.1349 12.0812 21.1822C11.9366 21.219 11.7013 21.2374 11.3753 21.2374H10.5037V17.408H11.0282C11.5041 17.408 11.8236 17.4264 11.9865 17.4632C12.2047 17.5105 12.3849 17.6012 12.5269 17.7354C12.6688 17.8695 12.7792 18.0561 12.8581 18.2954C12.937 18.5346 12.9765 18.8777 12.9765 19.3247C12.9765 19.7716 12.937 20.1246 12.8581 20.3836Z" fill="#0B1F33"/>
<path d="M19.1446 17.408V16.4299H15.181V22.2115H16.3484V19.7546H18.7621V18.7765H16.3484V17.408H19.1446Z" fill="#0B1F33"/>
</svg>
