<svg width="33" height="35" fill="none" xmlns="http://www.w3.org/2000/svg"><path d="M32.793 9.472L23.876.206A.673.673 0 0023.39 0H10.1a2.7 2.7 0 00-2.697 2.696v9.42H2.018A2.02 2.02 0 000 14.132v10.1a2.02 2.02 0 002.018 2.017h5.386v6.059A2.697 2.697 0 0010.1 35h20.182a2.697 2.697 0 002.698-2.69V9.938a.674.674 0 00-.188-.466zm-9.235-7.655l7.32 7.606h-7.32V1.817zM2.018 24.904a.672.672 0 01-.672-.671v-10.1c0-.37.302-.671.672-.671h18.176c.37 0 .671.3.671.67v10.1c0 .37-.301.672-.671.672H2.018zm29.617 7.406a1.35 1.35 0 01-1.352 1.344H10.101a1.35 1.35 0 01-1.351-1.345V26.25h11.444a2.02 2.02 0 002.018-2.017v-10.1a2.02 2.02 0 00-2.018-2.018H8.75V2.696c0-.744.606-1.35 1.351-1.35h12.11v8.75c0 .372.302.673.674.673h8.75V32.31z" fill="#0B1F33"/><path d="M8.047 17.083a1.517 1.517 0 00-.832-.566c-.216-.058-.679-.087-1.389-.087H3.953v5.782H5.12V20.03h.762c.528 0 .932-.028 1.21-.083.205-.045.407-.136.606-.274.198-.138.362-.328.49-.57.13-.242.194-.54.194-.895 0-.46-.112-.836-.335-1.126zm-1 1.59a.766.766 0 01-.365.285c-.155.06-.463.09-.923.09H5.12v-1.64h.564c.421 0 .701.013.84.04a.81.81 0 01.47.256c.123.136.185.31.185.52a.78.78 0 01-.132.45zm6.947-.663a2.525 2.525 0 00-.552-.937 1.933 1.933 0 00-.872-.533c-.252-.073-.619-.11-1.1-.11H9.336v5.782h2.197c.431 0 .776-.041 1.033-.123.345-.11.618-.264.82-.461.269-.26.475-.6.62-1.022.118-.344.177-.754.177-1.23 0-.542-.063-.997-.189-1.367zm-1.136 2.374c-.079.259-.18.445-.306.558a1.077 1.077 0 01-.47.24c-.145.037-.38.055-.707.055h-.871v-3.829h.524c.476 0 .796.018.958.055a1.1 1.1 0 01.54.272c.143.134.253.321.332.56.079.24.118.583.118 1.03 0 .447-.039.8-.118 1.059zm6.287-2.976v-.978H15.18v5.782h1.167v-2.457h2.414v-.979h-2.414v-1.368h2.797z" fill="#0B1F33"/></svg>